<svg width="30" height="26" viewBox="0 0 30 26" fill="none" xmlns="http://www.w3.org/2000/svg">
<path d="M30 9.18846C30 12.8764 27.9693 15.8867 23.7916 18.3916C18.5205 21.5521 15.931 25.3568 15.9055 25.3949C15.7029 25.6967 15.3633 25.8777 14.9999 25.8777C14.6369 25.8777 14.2977 25.697 14.0951 25.3959C14.0556 25.3373 11.4369 21.5265 6.20841 18.3916C2.03075 15.8867 0 12.8763 0 9.18846C0 4.79343 2.86445 0.122437 8.17286 0.122437C11.7288 0.122437 13.8843 1.69693 15.0001 2.87638C16.1158 1.69679 18.2713 0.122437 21.8273 0.122437C27.1357 0.122291 30 4.79343 30 9.18846Z" fill="#800101"/>
</svg>
